<?xml version="1.0" standalone="no"?><!DOCTYPE svg PUBLIC "-//W3C//DTD SVG 1.1//EN" "http://www.w3.org/Graphics/SVG/1.1/DTD/svg11.dtd"><svg t="1653122273848" class="icon" viewBox="0 0 1024 1024" version="1.1" xmlns="http://www.w3.org/2000/svg" p-id="5157" xmlns:xlink="http://www.w3.org/1999/xlink" width="200" height="200"><defs><style type="text/css">@font-face { font-family: feedback-iconfont; src: url("//at.alicdn.com/t/font_1031158_u69w8yhxdu.woff2?t=1630033759944") format("woff2"), url("//at.alicdn.com/t/font_1031158_u69w8yhxdu.woff?t=1630033759944") format("woff"), url("//at.alicdn.com/t/font_1031158_u69w8yhxdu.ttf?t=1630033759944") format("truetype"); }
</style></defs><path d="M342 472H242c-71.68 0-130-58.32-130-130V242c0-71.68 58.32-130 130-130h100c71.68 0 130 58.32 130 130v100c0 71.68-58.32 130-130 130zM242 172c-38.59 0-70 31.41-70 70v100c0 38.59 31.41 70 70 70h100c38.59 0 70-31.41 70-70V242c0-38.59-31.41-70-70-70H242zM711.28 513.43c-34.73 0-67.36-13.53-91.91-38.08l-70.7-70.71c-24.55-24.55-38.09-57.2-38.09-91.92s13.54-67.37 38.09-91.93l70.7-70.7c50.66-50.71 133.14-50.66 183.85-0.01l70.7 70.72c24.55 24.55 38.09 57.2 38.09 91.92s-13.54 67.37-38.09 91.93l-70.7 70.7c-24.56 24.56-57.22 38.08-91.94 38.08z m0-341.39c-17.93 0-35.84 6.82-49.49 20.46l-70.7 70.71c-13.22 13.22-20.51 30.8-20.51 49.5s7.29 36.28 20.51 49.49l70.7 70.72c26.46 26.46 72.58 26.45 99 0l70.7-70.71c13.22-13.22 20.51-30.8 20.51-49.5s-7.29-36.28-20.51-49.49l-70.7-70.72c-13.65-13.64-31.58-20.46-49.51-20.46zM342 912H242c-71.68 0-130-58.32-130-130V682c0-71.68 58.32-130 130-130h100c71.68 0 130 58.32 130 130v100c0 71.68-58.32 130-130 130zM242 612c-38.59 0-70 31.41-70 70v100c0 38.59 31.41 70 70 70h100c38.59 0 70-31.41 70-70V682c0-38.59-31.41-70-70-70H242zM782 912H682c-71.68 0-130-58.32-130-130V682c0-71.68 58.32-130 130-130h100c71.68 0 130 58.32 130 130v100c0 71.68-58.32 130-130 130zM682 612c-38.59 0-70 31.41-70 70v100c0 38.59 31.41 70 70 70h100c38.59 0 70-31.41 70-70V682c0-38.59-31.41-70-70-70H682z" p-id="5158"></path></svg>