<?xml version="1.0" standalone="no"?><!DOCTYPE svg PUBLIC "-//W3C//DTD SVG 1.1//EN" "http://www.w3.org/Graphics/SVG/1.1/DTD/svg11.dtd"><svg t="1648272975043" class="icon" viewBox="0 0 1024 1024" version="1.1" xmlns="http://www.w3.org/2000/svg" p-id="2213" xmlns:xlink="http://www.w3.org/1999/xlink" width="200" height="200"><defs><style type="text/css"></style></defs><path d="M770.133333 917.333333H275.2C228.266667 917.333333 192 881.066667 192 834.133333s36.266667-83.2 83.2-83.2H810.666667c12.8 0 21.333333 8.533333 21.333333 21.333334v83.2c0 34.133333-27.733333 61.866667-61.866667 61.866666z m-494.933333-123.733333c-21.333333 0-40.533333 17.066667-40.533333 40.533333s17.066667 40.533333 40.533333 40.533334h494.933333c10.666667 0 19.2-8.533333 19.2-19.2v-61.866667H275.2z" p-id="2214"></path><path d="M330.666667 789.333333c-12.8 0-21.333333-8.533333-21.333334-21.333333V138.666667c0-12.8 8.533333-21.333333 21.333334-21.333334s21.333333 8.533333 21.333333 21.333334V768c0 12.8-8.533333 21.333333-21.333333 21.333333zM454.4 501.333333l-14.933333 51.2h-46.933334l59.733334-196.266666H512l61.866667 196.266666h-46.933334l-14.933333-51.2h-57.6z m51.2-34.133333l-12.8-42.666667c-4.266667-10.666667-6.4-25.6-10.666667-38.4-2.133333 10.666667-6.4 25.6-8.533333 38.4l-12.8 42.666667h44.8zM680.533333 550.4l-2.133333-14.933333c-8.533333 10.666667-23.466667 17.066667-40.533333 17.066666-29.866667 0-46.933333-21.333333-46.933334-42.666666 0-36.266667 34.133333-55.466667 83.2-55.466667v-2.133333c0-8.533333-4.266667-19.2-25.6-19.2-14.933333 0-29.866667 4.266667-38.4 10.666666l-8.533333-27.733333c10.666667-6.4 29.866667-12.8 55.466667-12.8 46.933333 0 61.866667 27.733333 61.866666 61.866667v49.066666c0 12.8 0 25.6 2.133334 34.133334h-40.533334z m-6.4-66.133333c-23.466667 0-40.533333 6.4-40.533333 23.466666 0 10.666667 8.533333 17.066667 17.066667 17.066667 10.666667 0 19.2-6.4 23.466666-17.066667v-23.466666z" p-id="2215"></path><path d="M768 917.333333H277.333333c-12.8 0-21.333333-8.533333-21.333333-21.333333s8.533333-21.333333 21.333333-21.333333h490.666667c10.666667 0 21.333333-8.533333 21.333333-19.2V168.533333c0-10.666667-8.533333-19.2-21.333333-19.2H275.2c-21.333333 0-40.533333 17.066667-40.533333 40.533334v644.266666c0 12.8-8.533333 21.333333-21.333334 21.333334s-21.333333-8.533333-21.333333-21.333334V189.866667C192 142.933333 228.266667 106.666667 275.2 106.666667H768c36.266667 0 64 27.733333 64 61.866666V853.333333c0 36.266667-27.733333 64-64 64z" p-id="2216"></path></svg>