<?xml version="1.0" standalone="no"?><!DOCTYPE svg PUBLIC "-//W3C//DTD SVG 1.1//EN" "http://www.w3.org/Graphics/SVG/1.1/DTD/svg11.dtd"><svg t="1653226733809" class="icon" viewBox="0 0 1024 1024" version="1.1" xmlns="http://www.w3.org/2000/svg" p-id="2988" xmlns:xlink="http://www.w3.org/1999/xlink" width="200" height="200"><defs><style type="text/css">@font-face { font-family: feedback-iconfont; src: url("//at.alicdn.com/t/font_1031158_u69w8yhxdu.woff2?t=1630033759944") format("woff2"), url("//at.alicdn.com/t/font_1031158_u69w8yhxdu.woff?t=1630033759944") format("woff"), url("//at.alicdn.com/t/font_1031158_u69w8yhxdu.ttf?t=1630033759944") format("truetype"); }
</style></defs><path d="M507.790222 1024c80.611556 0 148.423111-51.2 148.423111-102.4H358.4c0 51.2 68.835556 102.4 149.390222 102.4z m349.809778-286.264889V448.398222c0-161.962667-93.866667-297.528889-259.185778-333.368889V79.075556C598.414222 35.271111 559.786667 0 512 0c-47.786667 0-86.414222 35.328-86.414222 79.075556v35.896888c-164.750222 35.896889-259.185778 170.951111-259.185778 333.368889v289.393778L51.2 817.664v52.736h921.6v-52.736l-115.2-79.928889z m-103.708444 30.264889h-484.693334V446.179556C269.141333 313.173333 369.777778 204.8 512 204.8s241.891556 108.373333 241.891556 241.379556V768z" p-id="2989"></path></svg>