<?xml version="1.0" standalone="no"?><!DOCTYPE svg PUBLIC "-//W3C//DTD SVG 1.1//EN" "http://www.w3.org/Graphics/SVG/1.1/DTD/svg11.dtd"><svg t="1646876029881" class="icon" viewBox="0 0 1093 1024" version="1.1" xmlns="http://www.w3.org/2000/svg" p-id="2065" xmlns:xlink="http://www.w3.org/1999/xlink" width="213.4765625" height="200"><defs><style type="text/css"></style></defs><path d="M548.621733 862.723521H70.42641V352.13205h907.092159v140.852819a35.213205 35.213205 0 0 0 70.42641 0V35.213205a35.213205 35.213205 0 0 0-35.213205-35.213205H35.213205a35.213205 35.213205 0 0 0-35.213205 35.213205v862.723521a35.213205 35.213205 0 0 0 35.213205 35.213205h513.408528a35.213205 35.213205 0 1 0 0-70.42641zM70.42641 70.42641h907.092159v211.27923H70.42641z" fill="#666666" p-id="2066"></path><path d="M874.696011 176.770289m-34.508941 0a34.508941 34.508941 0 1 0 69.017882 0 34.508941 34.508941 0 1 0-69.017882 0Z" fill="#666666" p-id="2067"></path><path d="M733.843191 176.770289m-34.508941 0a34.508941 34.508941 0 1 0 69.017882 0 34.508941 34.508941 0 1 0-69.017882 0Z" fill="#666666" p-id="2068"></path><path d="M592.286107 176.770289m-34.508941 0a34.508941 34.508941 0 1 0 69.017882 0 34.508941 34.508941 0 1 0-69.017882 0Z" fill="#666666" p-id="2069"></path><path d="M1056.396149 738.77304h-73.947731a140.85282 140.85282 0 0 0-16.198074-38.030261l53.524071-53.524072a35.213205 35.213205 0 0 0-50.002751-50.002751l-54.228335 53.524072a140.85282 140.85282 0 0 0-37.325998-16.902339V559.185695a35.213205 35.213205 0 0 0-70.426409 0V633.837689a140.85282 140.85282 0 0 0-38.030262 16.198074l-53.524071-53.524071a35.213205 35.213205 0 0 0-50.002751 50.002751l53.524071 53.524071a140.85282 140.85282 0 0 0-16.198074 38.030262H628.203576a35.213205 35.213205 0 0 0 0 70.42641H704.264099a140.85282 140.85282 0 0 0 16.198074 38.030261l-53.524071 53.524072a35.213205 35.213205 0 1 0 50.002751 50.002751l53.524071-53.524072a140.85282 140.85282 0 0 0 38.030262 16.198074V985.969739a35.213205 35.213205 0 0 0 70.42641 0v-70.42641a140.85282 140.85282 0 0 0 38.030261-16.198075l53.524071 53.524072a35.213205 35.213205 0 0 0 50.002752-50.002751l-54.228336-57.749656a140.85282 140.85282 0 0 0 16.198074-38.030262H1056.396149a35.213205 35.213205 0 1 0 0-70.426409zM845.116919 845.116919a70.42641 70.42641 0 1 1 70.42641-70.42641 70.42641 70.42641 0 0 1-70.42641 70.42641z" fill="#666666" p-id="2070"></path></svg>